<svg xmlns="http://www.w3.org/2000/svg" width="22" height="22" fill="none"><path fill="#000" fill-rule="evenodd" d="M18.82 4.153a.687.687 0 1 0-.973-.972L3.181 17.847a.688.688 0 0 0 .972.973l2.782-2.783c1.208.558 2.591.921 4.065.921 2.4 0 4.558-.963 6.113-2.157.778-.597 1.417-1.261 1.865-1.907.44-.633.73-1.3.73-1.894 0-.594-.29-1.26-.73-1.894-.448-.646-1.087-1.31-1.865-1.907-.248-.19-.512-.375-.789-.55l2.495-2.496Zm-4.952 4.951-1.006 1.007a2.062 2.062 0 0 1-2.75 2.75l-1.008 1.007a3.437 3.437 0 0 0 4.764-4.764Z" clip-rule="evenodd"/><path fill="#000" d="M11.602 7.615c.084.015.17-.01.23-.07l1.756-1.755a.242.242 0 0 0-.103-.407A9.356 9.356 0 0 0 11 5.042c-2.4 0-4.558.963-6.113 2.157-.778.597-1.417 1.261-1.865 1.907-.44.633-.73 1.3-.73 1.894 0 .594.29 1.26.73 1.894.38.547.896 1.107 1.518 1.629a.246.246 0 0 0 .332-.017l2.673-2.673a.26.26 0 0 0 .07-.23 3.437 3.437 0 0 1 3.987-3.987Z"/></svg>